<svg width="24" height="24" viewBox="0 0 24 24" fill="none" xmlns="http://www.w3.org/2000/svg">
<path d="M21.976 24H2.026C0.9 24 0 23.1 0 21.976V2.026C0 0.9 0.9 0 2.025 0H22.05C23.1 0 24 0.9 24 2.025V21.975C24 23.1 23.1 24 21.976 24ZM12 3.975H9C6.225 3.975 3.975 6.225 3.975 9V15C3.975 17.774 6.225 20.024 9 20.024H15C17.774 20.024 20.024 17.774 20.024 15V11.025C20.024 10.425 19.574 9.975 18.974 9.975H18C17.476 9.975 17.024 9.525 17.024 8.999C17.024 6.223 14.774 3.973 12 3.973V3.975ZM15.074 15.975H9C8.475 15.975 8.025 15.525 8.025 15C8.025 14.475 8.475 14.024 9 14.024H15.074C15.6 14.024 16.051 14.474 16.051 15C16.051 15.526 15.601 15.976 15.076 15.976L15.074 15.975ZM12.524 8.025C13.051 8.025 13.5 8.475 13.5 9C13.5 9.525 13.05 9.975 12.525 9.975H8.925C8.4 9.975 7.949 9.525 7.949 9C7.949 8.475 8.399 8.025 8.924 8.025H12.524Z" fill="#FF5C00"/>
</svg>
