<svg width="23" height="23" viewBox="0 0 23 23" fill="none" xmlns="http://www.w3.org/2000/svg">
<g clip-path="url(#clip0)">
<path d="M6.8602 7.39285L16.1398 7.39285L11.5 11.3698L6.8602 7.39285Z" fill="#FF0000"/>
<path d="M11.5 12.3214C11.5981 12.3214 11.6929 12.2863 11.7673 12.2224L16.8393 7.87497V15.6071H6.16072L6.16072 7.87497L11.2327 12.2224C11.3071 12.2863 11.4019 12.3214 11.5 12.3214Z" fill="#FF0000"/>
<path d="M11.5 0C17.8512 0 23 5.14877 23 11.5C23 17.8512 17.8512 23 11.5 23C5.14877 23 0 17.8512 0 11.5C0.00721931 5.15178 5.15178 0.00721959 11.5 0ZM5.33928 16.0179C5.33928 16.2447 5.52318 16.4286 5.75 16.4286L17.25 16.4286C17.4768 16.4286 17.6607 16.2447 17.6607 16.0179V6.98214C17.6607 6.75533 17.4768 6.57143 17.25 6.57143L5.75 6.57143C5.52318 6.57143 5.33928 6.75533 5.33928 6.98214L5.33928 16.0179Z" fill="#FF0000"/>
</g>
<defs>
<clipPath id="clip0">
<rect width="23" height="23" transform="matrix(-1 0 0 1 23 0)" fill="white"/>
</clipPath>
</defs>
</svg>
