<svg width="24" height="24" viewBox="0 0 24 24" fill="none" xmlns="http://www.w3.org/2000/svg">
<path d="M12.003 0H11.997C5.3805 0 0 5.382 0 12C0 14.625 0.846 17.058 2.2845 19.0335L0.789 23.4915L5.4015 22.017C7.299 23.274 9.5625 24 12.003 24C18.6195 24 24 18.6165 24 12C24 5.3835 18.6195 0 12.003 0Z" fill="#4CAF50"/>
<path d="M18.9855 16.9455C18.696 17.763 17.547 18.441 16.6305 18.639C16.0035 18.7725 15.1845 18.879 12.4275 17.736C8.90101 16.275 6.63001 12.6915 6.45301 12.459C6.28351 12.2265 5.02802 10.5615 5.02802 8.8395C5.02802 7.1175 5.90252 6.279 6.25502 5.919C6.54451 5.6235 7.02301 5.4885 7.48201 5.4885C7.63051 5.4885 7.76401 5.496 7.88401 5.502C8.23651 5.517 8.41351 5.538 8.64601 6.0945C8.93551 6.792 9.64051 8.514 9.72451 8.691C9.81001 8.868 9.89551 9.108 9.77551 9.3405C9.66301 9.5805 9.56401 9.687 9.38701 9.891C9.21001 10.095 9.04201 10.251 8.86501 10.47C8.70301 10.6605 8.52001 10.8645 8.72401 11.217C8.92801 11.562 9.63301 12.7125 10.671 13.6365C12.0105 14.829 13.0965 15.21 13.485 15.372C13.7745 15.492 14.1195 15.4635 14.331 15.2385C14.5995 14.949 14.931 14.469 15.2685 13.9965C15.5085 13.6575 15.8115 13.6155 16.1295 13.7355C16.4535 13.848 18.168 14.6955 18.5205 14.871C18.873 15.048 19.1055 15.132 19.191 15.2805C19.275 15.429 19.275 16.1265 18.9855 16.9455Z" fill="#FAFAFA"/>
<g clip-path="url(#clip0)">
<path d="M7.64062 12C7.48781 12 7.46873 12.0007 7.40873 12.0034C7.34883 12.0062 7.30805 12.0156 7.27219 12.0295C7.2352 12.0439 7.2038 12.0631 7.17253 12.0944C7.14127 12.1257 7.12195 12.157 7.10766 12.1941C7.09373 12.2299 7.08427 12.2707 7.0815 12.3306C7.07869 12.3906 7.07812 12.4097 7.07812 12.5625C7.07812 12.7153 7.07883 12.7344 7.0815 12.7944C7.08431 12.8543 7.09373 12.8951 7.10766 12.9309C7.122 12.9679 7.14127 12.9993 7.17253 13.0306C7.2038 13.0618 7.23516 13.0812 7.27219 13.0955C7.30809 13.1093 7.34887 13.1189 7.40873 13.1216C7.46873 13.1244 7.48781 13.125 7.64062 13.125C7.79344 13.125 7.81252 13.1243 7.87252 13.1216C7.93238 13.1188 7.9732 13.1093 8.00906 13.0955C8.046 13.0811 8.07745 13.0618 8.10872 13.0306C8.13994 12.9993 8.1593 12.968 8.17359 12.9309C8.18747 12.8951 8.19698 12.8543 8.19975 12.7944C8.20256 12.7344 8.20312 12.7153 8.20312 12.5625C8.20312 12.4097 8.20242 12.3906 8.19975 12.3306C8.19694 12.2707 8.18747 12.2299 8.17359 12.1941C8.15925 12.1571 8.13994 12.1257 8.10872 12.0944C8.07745 12.0631 8.04614 12.0438 8.00906 12.0295C7.9732 12.0156 7.93238 12.0061 7.87252 12.0034C7.81252 12.0006 7.79344 12 7.64062 12ZM7.64062 12.1013C7.79077 12.1013 7.80867 12.102 7.86797 12.1046C7.92281 12.1072 7.95258 12.1162 7.97236 12.124C7.9987 12.1342 8.01736 12.1464 8.03714 12.166C8.05678 12.1857 8.06897 12.2044 8.07914 12.2308C8.08683 12.2505 8.09602 12.2803 8.0985 12.3352C8.10117 12.3945 8.10178 12.4123 8.10178 12.5625C8.10178 12.7127 8.10108 12.7305 8.09831 12.7898C8.09545 12.8447 8.08631 12.8745 8.07858 12.8942C8.06808 12.9206 8.05612 12.9392 8.03644 12.959C8.0168 12.9787 7.99781 12.9908 7.97175 13.001C7.95206 13.0087 7.92183 13.0179 7.86698 13.0204C7.80727 13.023 7.78969 13.0237 7.63922 13.0237C7.4887 13.0237 7.47113 13.023 7.41145 13.0202C7.35656 13.0173 7.32633 13.0082 7.30664 13.0005C7.27997 12.99 7.26164 12.978 7.242 12.9583C7.22227 12.9387 7.20966 12.9197 7.19981 12.8936C7.19208 12.8739 7.18298 12.8437 7.18013 12.7889C7.17802 12.7298 7.17727 12.7116 7.17727 12.5618C7.17727 12.412 7.17802 12.3937 7.18013 12.3339C7.18298 12.2791 7.19208 12.2489 7.19981 12.2292C7.20966 12.2025 7.22227 12.1842 7.242 12.1645C7.26164 12.1448 7.27997 12.1322 7.30664 12.1224C7.32633 12.1146 7.35591 12.1055 7.41075 12.1027C7.47052 12.1005 7.48809 12.0998 7.63852 12.0998L7.64062 12.1013ZM7.64062 12.2737C7.48102 12.2737 7.35178 12.403 7.35178 12.5625C7.35178 12.7221 7.48116 12.8513 7.64062 12.8513C7.80023 12.8513 7.92947 12.722 7.92947 12.5625C7.92947 12.4029 7.80009 12.2737 7.64062 12.2737ZM7.64062 12.75C7.53703 12.75 7.45312 12.6661 7.45312 12.5625C7.45312 12.4589 7.53703 12.375 7.64062 12.375C7.74422 12.375 7.82812 12.4589 7.82812 12.5625C7.82812 12.6661 7.74422 12.75 7.64062 12.75ZM8.00841 12.2623C8.00841 12.2995 7.97813 12.3298 7.94091 12.3298C7.90364 12.3298 7.87341 12.2995 7.87341 12.2623C7.87341 12.225 7.90369 12.1948 7.94091 12.1948C7.97808 12.1948 8.00841 12.225 8.00841 12.2623Z" fill="black"/>
</g>
<defs>
<clipPath id="clip0">
<rect x="7.07812" y="12" width="1.125" height="1.125" fill="white"/>
</clipPath>
</defs>
</svg>
